<svg xmlns="http://www.w3.org/2000/svg" width="820" height="186" viewBox="0 0 820 186" role="img" aria-labelledby="t d" font-family="-apple-system, BlinkMacSystemFont, 'Segoe UI', 'Noto Sans', Helvetica, Arial, sans-serif">
<title id="t">Course content: 216 exercises</title>
<desc id="d">Stacked bar of the 216 seeded exercises by type: multiple choice 81 (37.5%), translate with a word bank 54 (25%), match pairs 27, fill in the blank 27 and type the answer 27 (12.5% each).</desc>
<rect x="0.5" y="0.5" width="819" height="185" rx="12" fill="#0d1117" stroke="#3d444d"/>
<text x="28" y="46" font-size="18" font-weight="700" fill="#f0f6fc">Course content: 216 exercises</text>
<text x="28" y="68" font-size="13" fill="#9198a1">1 course · 3 units · 9 skills · 27 lessons · 8 exercises per lesson</text>
<path d="M32.0,98.0 H311.5 V124.0 H32.0 A4,4 0 0 1 28.0,120.0 V102.0 A4,4 0 0 1 32.0,98.0 Z" fill="#1899d6"/>
<text x="169.8" y="115.5" text-anchor="middle" font-size="12.5" font-weight="700" fill="#0d1117">81 · 37.5%</text>
<circle cx="34.0" cy="153.5" r="6" fill="#1899d6"/>
<text x="46.0" y="158" font-size="13.5" fill="#f0f6fc">Multiple choice</text>
<path d="M313.5,98.0 H502.5 V124.0 H313.5 V98.0 Z" fill="#58a700"/>
<text x="408.0" y="115.5" text-anchor="middle" font-size="12.5" font-weight="700" fill="#0d1117">54 · 25%</text>
<circle cx="186.8" cy="153.5" r="6" fill="#58a700"/>
<text x="198.8" y="158" font-size="13.5" fill="#f0f6fc">Translate</text>
<path d="M504.5,98.0 H599.0 V124.0 H504.5 V98.0 Z" fill="#a568cc"/>
<text x="551.8" y="115.5" text-anchor="middle" font-size="12.5" font-weight="700" fill="#0d1117">27 · 12.5%</text>
<circle cx="339.6" cy="153.5" r="6" fill="#a568cc"/>
<text x="351.6" y="158" font-size="13.5" fill="#f0f6fc">Match pairs</text>
<path d="M601.0,98.0 H695.5 V124.0 H601.0 V98.0 Z" fill="#d27800"/>
<text x="648.2" y="115.5" text-anchor="middle" font-size="12.5" font-weight="700" fill="#0d1117">27 · 12.5%</text>
<circle cx="492.4" cy="153.5" r="6" fill="#d27800"/>
<text x="504.4" y="158" font-size="13.5" fill="#f0f6fc">Fill blank</text>
<path d="M697.5,98.0 H788.0 A4,4 0 0 1 792.0,102.0 V120.0 A4,4 0 0 1 788.0,124.0 H697.5 V98.0 Z" fill="#d55181"/>
<text x="744.8" y="115.5" text-anchor="middle" font-size="12.5" font-weight="700" fill="#0d1117">27 · 12.5%</text>
<circle cx="645.2" cy="153.5" r="6" fill="#d55181"/>
<text x="657.2" y="158" font-size="13.5" fill="#f0f6fc">Type answer</text>
</svg>
